<svg xmlns="http://www.w3.org/2000/svg" viewBox="-4 -4 32 32" fill="none">
  <defs>
    <radialGradient id="iw-body" cx="0" cy="0" r="1" gradientTransform="matrix(7.5 8.85 -9.52 8.1 14.15 8.5)" gradientUnits="userSpaceOnUse">
      <stop stop-color="#fff7ef"/>
      <stop offset="0.5" stop-color="#f0c9b2"/>
      <stop offset="1" stop-color="#d09a82"/>
    </radialGradient>
    <linearGradient id="iw-shade" x1="9.2" y1="5.75" x2="19.4" y2="21.05" gradientUnits="userSpaceOnUse">
      <stop stop-color="#ffffff" stop-opacity="0.72"/>
      <stop offset="0.45" stop-color="#fff7e5" stop-opacity="0.12"/>
      <stop offset="1" stop-color="#895948" stop-opacity="0.14"/>
    </linearGradient>
    <radialGradient id="iw-blush" cx="0" cy="0" r="1" gradientTransform="matrix(3.28 0 0 1.94 14.32 17.43)" gradientUnits="userSpaceOnUse">
      <stop stop-color="#d98496" stop-opacity="0.18"/>
      <stop offset="1" stop-color="transparent"/>
    </radialGradient>
  </defs>
  <path d="M13.52 4.55c1.18-1.43 3.71-.84 4.25.93 1.94-.17 3.54 1.22 3.66 3.16 1.64.59 2.69 2.15 2.48 3.96-.25 2.15-2.06 3.75-4.17 3.92-.63 1.98-2.57 3.37-4.8 3.37-1.64 0-3.16-.76-4.13-1.9-1.94.76-4.21-.04-5.1-1.86-1.94-.21-3.37-1.81-3.37-3.75 0-1.77 1.22-3.29 2.91-3.71-.17-.42-.25-.88-.25-1.35 0-2.27 1.9-4.13 4.17-4.13.93 0 1.81.29 2.48.8.34-.34.72-.59 1.27-.72Z" fill="url(#iw-body)"/>
  <path d="M13.52 4.55c1.18-1.43 3.71-.84 4.25.93 1.94-.17 3.54 1.22 3.66 3.16 1.64.59 2.69 2.15 2.48 3.96-.25 2.15-2.06 3.75-4.17 3.92-.63 1.98-2.57 3.37-4.8 3.37-1.64 0-3.16-.76-4.13-1.9-1.94.76-4.21-.04-5.1-1.86-1.94-.21-3.37-1.81-3.37-3.75 0-1.77 1.22-3.29 2.91-3.71-.17-.42-.25-.88-.25-1.35 0-2.27 1.9-4.13 4.17-4.13.93 0 1.81.29 2.48.8.34-.34.72-.59 1.27-.72Z" fill="url(#iw-shade)"/>
  <path d="M6.74 9.26c1.18-1.6 3.16-2.27 5.01-1.69 1.26-1.64 3.92-1.81 5.43-.34" stroke="rgba(255,255,255,0.58)" stroke-width="0.26" stroke-linecap="round"/>
  <ellipse cx="9.01" cy="14.53" rx="1.43" ry="1.98" fill="#242b38"/>
  <ellipse cx="15.58" cy="14.53" rx="1.43" ry="1.98" fill="#242b38"/>
  <circle cx="8.55" cy="13.81" r="0.46" fill="#ffffff"/>
  <circle cx="15.12" cy="13.81" r="0.46" fill="#ffffff"/>
  <circle cx="9.51" cy="15.33" r="0.21" fill="#ffffff" opacity="0.4"/>
  <circle cx="16.08" cy="15.33" r="0.21" fill="#ffffff" opacity="0.4"/>
  <ellipse cx="7.75" cy="17.68" rx="2.61" ry="1.52" fill="url(#iw-blush)" opacity="0.86"/>
  <ellipse cx="17.26" cy="17.68" rx="2.61" ry="1.52" fill="url(#iw-blush)" opacity="0.78"/>
  <circle cx="17.01" cy="9.6" r="0.59" fill="#ffe8c6" opacity="0.92"/>
</svg>
