<svg xmlns="http://www.w3.org/2000/svg" viewBox="0 0 32 32" fill="none">
  <defs>
    <linearGradient id="iw-shell" x1="6" y1="4" x2="26" y2="28" gradientUnits="userSpaceOnUse">
      <stop stop-color="#1e293b"/>
      <stop offset="0.55" stop-color="#111827"/>
      <stop offset="1" stop-color="#070b12"/>
    </linearGradient>
    <linearGradient id="iw-face" x1="8" y1="7" x2="24" y2="25" gradientUnits="userSpaceOnUse">
      <stop stop-color="#eef5ff"/>
      <stop offset="1" stop-color="#9fb4cc"/>
    </linearGradient>
    <linearGradient id="iw-accent" x1="10" y1="22" x2="23" y2="9" gradientUnits="userSpaceOnUse">
      <stop stop-color="#38bdf8"/>
      <stop offset="1" stop-color="#3b82f6"/>
    </linearGradient>
  </defs>
  <rect x="2" y="2" width="28" height="28" rx="8" fill="url(#iw-shell)"/>
  <rect x="2.5" y="2.5" width="27" height="27" rx="7.5" stroke="rgba(226,232,240,0.16)" stroke-width="0.7"/>
  <path d="M8.2 9.5h15.2v4.15H12.55v2.2h8.35v3.85h-8.35v2.8H8.2V9.5Z" fill="url(#iw-face)"/>
  <path d="M21.4 9.5h4.4l-6.15 13h-4.3l-2.7-5.8h4.35l1.55 3.08 2.85-6.1V9.5Z" fill="url(#iw-accent)"/>
  <path d="M8.2 9.5h15.2M12.55 15.85h8.35M8.2 22.5h4.35" stroke="rgba(15,23,42,0.4)" stroke-width="0.55" stroke-linecap="round" opacity="0.55"/>
  <g transform="translate(23.7 8.3)">
    <circle r="1.55" fill="#dbeafe"/>
    <circle r="0.58" fill="#fff"/>
  </g>
</svg>
