<svg xmlns="http://www.w3.org/2000/svg" viewBox="0 0 32 32" fill="none">
  <defs>
    <linearGradient id="iw-plume-base" x1="4.2" y1="23.4" x2="25.4" y2="11.4" gradientUnits="userSpaceOnUse">
      <stop stop-color="#2f69d3"/>
      <stop offset="0.48" stop-color="#4da6e8"/>
      <stop offset="1" stop-color="#abe7f5"/>
    </linearGradient>
    <linearGradient id="iw-plume-light" x1="4.4" y1="18" x2="24.2" y2="9.8" gradientUnits="userSpaceOnUse">
      <stop stop-color="#77d4e8"/>
      <stop offset="0.58" stop-color="#d5f3f6"/>
      <stop offset="1" stop-color="#ffffff" stop-opacity="0.42"/>
    </linearGradient>
    <linearGradient id="iw-plume-warm" x1="12.5" y1="17.8" x2="24.8" y2="4.8" gradientUnits="userSpaceOnUse">
      <stop stop-color="#dff6fb" stop-opacity="0.28"/>
      <stop offset="0.64" stop-color="#f8cd90" stop-opacity="0.38"/>
      <stop offset="1" stop-color="#f5bf7e"/>
    </linearGradient>
    <linearGradient id="iw-plume-shade" x1="5.2" y1="24.4" x2="18.8" y2="20.1" gradientUnits="userSpaceOnUse">
      <stop stop-color="#235bbe" stop-opacity="0.58"/>
      <stop offset="1" stop-color="#235bbe" stop-opacity="0"/>
    </linearGradient>
    <radialGradient id="iw-spark" cx="0" cy="0" r="1" gradientTransform="matrix(2.18 0 0 2.18 24.5 6.2)" gradientUnits="userSpaceOnUse">
      <stop stop-color="#fff3de"/>
      <stop offset="1" stop-color="#f6bd75"/>
    </radialGradient>
  </defs>
  <g transform="translate(-2.4 -1.8) scale(1.22)">
    <path d="M3.82 22.58c2.26-5.89 8.64-7.8 17.92-11.76-3.36 3.58-6.18 6.6-8.44 9.08 3.84-1.08 7.17-2.8 10.04-5.17-3.95 7.16-10.45 11.22-18.2 10.3-1.03-.12-1.67-1.48-1.32-2.45Z" fill="url(#iw-plume-base)"/>
    <path d="M4.48 20.42c3.76-5.55 10.64-6.43 18.64-12.23-1.14 5.02-4.5 9.08-10.08 12.17-3.1 1.72-6.27 2.08-8.56.06Z" fill="url(#iw-plume-light)" opacity="0.86"/>
    <path d="M10.14 20.63c3.88-3.72 9.8-7.72 14.46-16.68-.18 5.68-2.58 11.15-7.18 16.38-1.78 2.03-4.72 2.29-7.28.3Z" fill="url(#iw-plume-warm)" opacity="0.66"/>
    <path d="M4.16 23.02c3.93.78 8.5.2 13.68-1.76-3.84 3.02-8.22 4.34-12.64 3.8-.82-.1-1.27-1.18-1.04-2.04Z" fill="url(#iw-plume-shade)" opacity="0.58"/>
    <path d="M7.02 21.25c4.94.08 9.68-1.54 14.2-4.86" stroke="rgba(255,255,255,0.78)" stroke-width="0.58" stroke-linecap="round" opacity="0.52"/>
    <path d="M24.5 3.3 25.05 5.68 27.33 6.22 25.05 6.78 24.5 9.16 23.94 6.78 21.66 6.22 23.94 5.68 24.5 3.3Z" fill="url(#iw-spark)"/>
    <circle cx="18.24" cy="11.62" r="0.72" fill="#7db4f0" opacity="0.72"/>
    <circle cx="21.26" cy="9.42" r="0.54" fill="#f4c5a2" opacity="0.68"/>
  </g>
</svg>
